# This file uses centimeters as units for non-parametric coordinates.

mtllib Plane.mtl
g default
v -304.656708 -0.000000 304.656708
v 304.656708 -0.000000 304.656708
v -304.656708 0.000000 -304.656708
v 304.656708 0.000000 -304.656708
vt 0.000000 0.000000
vt 1.000000 0.000000
vt 0.000000 1.000000
vt 1.000000 1.000000
vn 0.000000 1.000000 0.000000
vn 0.000000 1.000000 0.000000
vn 0.000000 1.000000 0.000000
vn 0.000000 1.000000 0.000000
s off
g Plane
usemtl initialShadingGroup
f 2/2/1 4/4/2 3/3/3 1/1/4
